<?xml version="1.0" encoding="utf-8"?>
<!-- Generator: Adobe Illustrator 19.0.0, SVG Export Plug-In . SVG Version: 6.00 Build 0)  -->
<svg version="1.1" id="Layer_1" xmlns="http://www.w3.org/2000/svg" xmlns:xlink="http://www.w3.org/1999/xlink" x="0px" y="0px"
	 viewBox="-649 651 200 200" style="enable-background:new -649 651 200 200;" xml:space="preserve">
<style type="text/css">
	.st0{fill:none;}
	.st1{fill:#F1F1F1;}
</style>
<rect x="-649" y="651" class="st0" width="200" height="200"/>
<path class="st1" d="M-549,742.6L-549,742.6c0.4,0,0.7,0.5,0.7,1.1v2.1c0,0.6-0.3,1.1-0.7,1.1l0,0c-0.4,0-0.7-0.5-0.7-1.1v-2.1
	C-549.7,743-549.4,742.6-549,742.6z">
<animate  fill="remove" restart="always" calcMode="linear" additive="replace" accumulate="none" repeatCount="indefinite" begin="0s" dur="1s" to="0" from="1" attributeName="opacity">
		</animate>
</path>
<path class="st1" d="M-544.8,743.7L-544.8,743.7c0.4,0.2,0.4,0.8,0.1,1.3l-1.1,1.8c-0.3,0.5-0.8,0.7-1.2,0.5l0,0
	c-0.4-0.2-0.4-0.8-0.1-1.3l1.1-1.8C-545.7,743.7-545.1,743.5-544.8,743.7z">
<animate  fill="remove" restart="always" calcMode="linear" additive="replace" accumulate="none" repeatCount="indefinite" begin="0.08333333333333333s" dur="1s" to="0" from="1" attributeName="opacity">
		</animate>
</path>
<path class="st1" d="M-541.7,746.8L-541.7,746.8c0.2,0.4,0,0.9-0.5,1.2l-1.8,1.1c-0.5,0.3-1.1,0.2-1.3-0.1l0,0
	c-0.2-0.4,0-0.9,0.5-1.2l1.8-1.1C-542.5,746.4-541.9,746.4-541.7,746.8z">
<animate  fill="remove" restart="always" calcMode="linear" additive="replace" accumulate="none" repeatCount="indefinite" begin="0.16666666666666666s" dur="1s" to="0" from="1" attributeName="opacity">
		</animate>
</path>
<path class="st1" d="M-540.6,751L-540.6,751c0,0.4-0.5,0.7-1.1,0.7h-2.1c-0.6,0-1.1-0.3-1.1-0.7l0,0c0-0.4,0.5-0.7,1.1-0.7h2.1
	C-541,750.3-540.6,750.6-540.6,751z">
<animate  fill="remove" restart="always" calcMode="linear" additive="replace" accumulate="none" repeatCount="indefinite" begin="0.25s" dur="1s" to="0" from="1" attributeName="opacity">
		</animate>
</path>
<path class="st1" d="M-541.7,755.2L-541.7,755.2c-0.2,0.4-0.8,0.4-1.3,0.1l-1.8-1.1c-0.5-0.3-0.7-0.8-0.5-1.2l0,0
	c0.2-0.4,0.8-0.4,1.3-0.1l1.8,1.1C-541.7,754.3-541.5,754.9-541.7,755.2z">
<animate  fill="remove" restart="always" calcMode="linear" additive="replace" accumulate="none" repeatCount="indefinite" begin="0.3333333333333333s" dur="1s" to="0" from="1" attributeName="opacity">
		</animate>
</path>
<path class="st1" d="M-544.8,758.3L-544.8,758.3c-0.4,0.2-0.9,0-1.2-0.5l-1.1-1.8c-0.3-0.5-0.2-1.1,0.1-1.3l0,0
	c0.4-0.2,0.9,0,1.2,0.5l1.1,1.8C-544.4,757.5-544.4,758.1-544.8,758.3z">
<animate  fill="remove" restart="always" calcMode="linear" additive="replace" accumulate="none" repeatCount="indefinite" begin="0.4166666666666667s" dur="1s" to="0" from="1" attributeName="opacity">
		</animate>
</path>
<path class="st1" d="M-549,759.4L-549,759.4c-0.4,0-0.7-0.5-0.7-1.1v-2.1c0-0.6,0.3-1.1,0.7-1.1l0,0c0.4,0,0.7,0.5,0.7,1.1v2.1
	C-548.3,759-548.6,759.4-549,759.4z">
<animate  fill="remove" restart="always" calcMode="linear" additive="replace" accumulate="none" repeatCount="indefinite" begin="0.5s" dur="1s" to="0" from="1" attributeName="opacity">
		</animate>
</path>
<path class="st1" d="M-553.2,758.3L-553.2,758.3c-0.4-0.2-0.4-0.8-0.1-1.3l1.1-1.8c0.3-0.5,0.8-0.7,1.2-0.5l0,0
	c0.4,0.2,0.4,0.8,0.1,1.3l-1.1,1.8C-552.3,758.3-552.9,758.5-553.2,758.3z">
<animate  fill="remove" restart="always" calcMode="linear" additive="replace" accumulate="none" repeatCount="indefinite" begin="0.5833333333333334s" dur="1s" to="0" from="1" attributeName="opacity">
		</animate>
</path>
<path class="st1" d="M-556.3,755.2L-556.3,755.2c-0.2-0.4,0-0.9,0.5-1.2l1.8-1.1c0.5-0.3,1.1-0.2,1.3,0.1l0,0c0.2,0.4,0,0.9-0.5,1.2
	l-1.8,1.1C-555.5,755.6-556.1,755.6-556.3,755.2z">
<animate  fill="remove" restart="always" calcMode="linear" additive="replace" accumulate="none" repeatCount="indefinite" begin="0.6666666666666666s" dur="1s" to="0" from="1" attributeName="opacity">
		</animate>
</path>
<path class="st1" d="M-557.4,751L-557.4,751c0-0.4,0.5-0.7,1.1-0.7h2.1c0.6,0,1.1,0.3,1.1,0.7l0,0c0,0.4-0.5,0.7-1.1,0.7h-2.1
	C-557,751.7-557.4,751.4-557.4,751z">
<animate  fill="remove" restart="always" calcMode="linear" additive="replace" accumulate="none" repeatCount="indefinite" begin="0.75s" dur="1s" to="0" from="1" attributeName="opacity">
		</animate>
</path>
<path class="st1" d="M-556.3,746.8L-556.3,746.8c0.2-0.4,0.8-0.4,1.3-0.1l1.8,1.1c0.5,0.3,0.7,0.8,0.5,1.2l0,0
	c-0.2,0.4-0.8,0.4-1.3,0.1l-1.8-1.1C-556.3,747.7-556.5,747.1-556.3,746.8z">
<animate  fill="remove" restart="always" calcMode="linear" additive="replace" accumulate="none" repeatCount="indefinite" begin="0.8333333333333334s" dur="1s" to="0" from="1" attributeName="opacity">
		</animate>
</path>
<path class="st1" d="M-553.2,743.7L-553.2,743.7c0.4-0.2,0.9,0,1.2,0.5l1.1,1.8c0.3,0.5,0.2,1.1-0.1,1.3l0,0c-0.4,0.2-0.9,0-1.2-0.5
	l-1.1-1.8C-553.6,744.5-553.6,743.9-553.2,743.7z">
<animate  fill="remove" restart="always" calcMode="linear" additive="replace" accumulate="none" repeatCount="indefinite" begin="0.9166666666666666s" dur="1s" to="0" from="1" attributeName="opacity">
		</animate>
</path>
</svg>
